<svg xmlns="http://www.w3.org/2000/svg" xmlns:xlink="http://www.w3.org/1999/xlink" version="1.1" x="0px" y="0px" viewBox="0 0 87.64 47.698" style="enable-background:new 0 0 87.64 47.698;" xml:space="preserve"><g><path d="M86.709,8.673c-0.384-5.107-4.262-6.83-15.943-8.097C60.954-0.489,20.61-0.146,10.703,2.188   c-2.875,0.677-8.824,1.917-9.847,9.907c-0.451,4.417-2.185,23.948,1.125,27.659c4.134,4.636,7.261,7.169,39.878,7.841   s35.352-2.107,37.787-3.205C90.168,39.65,87.597,20.454,86.709,8.673z M33.708,3.808C44.736,3.581,82.447,1.197,85.486,7.8   c0.819,2.215-11.089,1.934-14.723,2.008c-0.135-0.767-0.356-1.492-0.729-2.102c-1.238-2.023-3.205,0.815-4.045,2.028   c-0.275,0.398-4.354,0.232-6.498,0.264c-0.145-0.542-0.32-1.07-0.541-1.576c-1.172-2.691-3.879,1.608-3.894,1.653   c-0.747,0.015-7.68,0.196-10.398,0.287c1.206-0.375,2.276-1.096,2.993-2.191c1.093,1.868,3.036,1.923,5.057,1.613   c0.492-0.075,0.207-2.643-0.061-2.503c-2.441,1.276-5.029-1.662-5.117-1.523c-3.967,6.317-10.762-0.614-10.898-0.481   c-5.132,4.967-9.093,0.156-9.525,0.44c-3.2,2.104-8.154,4.143-10.346,0.603c-1.741,0.262-4.943,3.847-3.8,3.643   s3.661-1.994,4.001-1.488c0.265,0.396,2.517,1.897,3.358,2.128c0.34,0.093,0.673,0.145,0.997,0.165   c-2.992-0.07-6.407-0.187-10.311-0.368c-2.155-0.1-5.449-0.713-7.988-1.242C4.572,3.136,28.286,3.918,33.708,3.808z M70.457,11.895   c0.101,1.222-0.025,3.974-0.029,4.136c-1.586,0.131-10.166,1.456-10.183,1.485c-0.012-0.358-0.156-3.982-0.353-5.448   C63.414,12.039,66.938,12.013,70.457,11.895z M67.339,9.874c1.645-3.292,2.687-0.072,2.694-0.05   C70.027,9.824,68.231,9.858,67.339,9.874z M70.548,23.479c-1.677-0.104-8.55,1.562-10.31,1.798c0.051-2.254,0.071-6.708,0.094-6.71   c1.792-0.147,8.54-0.262,10.084-0.476C70.429,19.887,70.492,21.679,70.548,23.479z M60.213,26.322   c1.684,0.138,8.583-0.634,10.393-0.82c0.054,1.854,0.127,3.719,0.288,5.571c-0.163-0.095-9.108,1.3-10.852,1.282   C60.102,30.345,60.163,28.334,60.213,26.322z M58.669,10.011c-0.839,0.013-1.677,0.028-2.516,0.043   c0.367-0.437,0.795-0.803,1.307-0.919C58.046,9.002,58.426,9.51,58.669,10.011z M40.941,10.487   c-2.231,0.074-7.286,0.557-19.225,0.291c3.098-0.063,5.327-3.048,5.348-2.999c1.778,4.189,5.348,2.681,6.958,1.85   c0.844-0.435,2.645-2.201,3.01-1.643C37.284,8.371,39.831,10.238,40.941,10.487z M85.27,33.385   c-6.125,10.143-20.262,10.284-26.807,10.574c-6.544,0.289-49.998,2.369-56.316-8.275c-2.63-4.432-0.114-25.376,0.018-25.576   c11.563,3.691,55.126,1.98,57.148,1.964c0.967,10.992-0.521,26.828,0.068,27.562c1.381,0.663,0.621-5.94,0.622-5.999   c1.535,0.779,10.794-0.482,11.077-0.772c0.228,1.858,0.082,4.438,1.093,5.505s-1.286-14.874-1.222-26.491   c2.292-0.083,11.783,0.415,15.317-2.89C86.271,9.051,87.139,30.29,85.27,33.385z"></path></g></svg>