<svg xmlns="http://www.w3.org/2000/svg" width="480pt" height="290pt" viewBox="0 0 480 290" version="1.1" xmlns:xlink="http://www.w3.org/1999/xlink">
  <g id="surface2" transform="matrix(1,0,0,1,0,0)">
    <path style="stroke:none;fill-rule:evenodd;fill:rgb(41.176471%,70.196078%,89.019608%);fill-opacity:1" d="M 174.699219 179.351562 C 179.535156 178.984375 184.601562 179.167969 189.898438 179.898438 C 195.234375 180.632812 200.667969 181.648438 206.199219 182.949219 C 211.765625 184.214844 217.332031 185.515625 222.898438 186.851562 C 228.464844 188.148438 233.933594 189.199219 239.300781 190 C 244.667969 190.800781 249.800781 191.082031 254.699219 190.851562 C 259.632812 190.617188 264.234375 189.601562 268.5 187.800781 C 272.765625 186 276.601562 183.148438 280 179.25 C 273 181.75 266.082031 183.285156 259.25 183.851562 C 252.417969 184.417969 245.734375 184.382812 239.199219 183.75 C 232.667969 183.117188 226.351562 182.234375 220.25 181.101562 C 214.183594 180 208.398438 178.984375 202.898438 178.050781 C 197.433594 177.148438 192.332031 176.714844 187.601562 176.75 C 182.867188 176.785156 178.566406 177.648438 174.699219 179.351562 "/>
    <path style="stroke:none;fill-rule:evenodd;fill:rgb(100.000000%,79.607843%,1.960784%);fill-opacity:1" d="M 207.851562 125.949219 C 207.183594 127.417969 206.632812 128.933594 206.199219 130.5 C 206.699219 131.101562 207.199219 131.699219 207.699219 132.300781 C 207.933594 130.199219 207.984375 128.082031 207.851562 125.949219 M 292 119.699219 C 291.800781 119.265625 291.601562 118.816406 291.398438 118.351562 C 291.433594 118.917969 291.367188 119.484375 291.199219 120.050781 C 290.800781 118.515625 290.449219 116.949219 290.148438 115.351562 C 289.851562 113.785156 289.464844 112.234375 289 110.699219 C 289 112.199219 288.984375 113.699219 288.949219 115.199219 C 288.917969 116.734375 288.765625 118.234375 288.5 119.699219 C 288.199219 118.132812 287.917969 116.582031 287.648438 115.050781 C 287.351562 113.484375 287.015625 111.933594 286.648438 110.398438 C 286.648438 112.199219 286.316406 113.933594 285.648438 115.601562 C 285.648438 114.332031 285.5 113.050781 285.199219 111.75 C 284.898438 110.417969 284.433594 109.199219 283.800781 108.101562 C 283.765625 109.667969 283.601562 111.214844 283.300781 112.75 C 283.035156 110.851562 282.617188 109 282.050781 107.199219 C 281.582031 108.667969 281.316406 110.183594 281.25 111.75 C 280.816406 109.515625 280.082031 107.417969 279.050781 105.449219 C 279.449219 107.949219 279.582031 110.464844 279.449219 113 C 279.183594 112.167969 278.882812 111.316406 278.550781 110.449219 C 278.25 109.617188 277.984375 108.765625 277.75 107.898438 C 277.617188 109 277.449219 109.464844 277.25 109.300781 C 277.050781 109.132812 276.816406 108.648438 276.550781 107.851562 C 276.285156 107.015625 276.035156 106.148438 275.800781 105.25 C 275.535156 104.351562 275.300781 103.714844 275.101562 103.351562 C 275.433594 105.382812 275.566406 107.515625 275.5 109.75 C 275.464844 111.984375 275.148438 114.101562 274.550781 116.101562 C 274.617188 113.367188 274.351562 110.683594 273.75 108.050781 C 273.648438 110.015625 273.398438 111.984375 273 113.949219 C 272.898438 111.683594 272.484375 109.464844 271.75 107.300781 C 271.582031 108.601562 271.816406 110.683594 272.449219 113.550781 C 273.082031 116.417969 273.964844 119.898438 275.101562 124 C 276.234375 128.101562 277.433594 132.667969 278.699219 137.699219 C 281.566406 135.234375 284.117188 132.5 286.351562 129.5 C 288.582031 126.464844 290.464844 123.199219 292 119.699219 M 216.949219 137.800781 C 216.816406 138.035156 216.683594 138.367188 216.550781 138.800781 C 216.417969 139.234375 216.285156 139.683594 216.148438 140.148438 C 216.515625 140.417969 216.882812 140.683594 217.25 140.949219 C 217.214844 139.648438 217.117188 138.601562 216.949219 137.800781 M 213.351562 137.949219 C 213.683594 135.515625 214.132812 133.132812 214.699219 130.800781 C 214.332031 131.464844 214.015625 132.167969 213.75 132.898438 C 213.984375 131.800781 214.183594 130.699219 214.351562 129.601562 C 214.515625 128.5 214.714844 127.398438 214.949219 126.300781 C 214.351562 127.5 213.765625 128.699219 213.199219 129.898438 C 212.667969 131.132812 212.035156 132.300781 211.300781 133.398438 C 212.066406 130.964844 212.550781 128.449219 212.75 125.851562 C 212.148438 127.117188 211.617188 128.417969 211.148438 129.75 C 210.648438 131.050781 210.082031 132.316406 209.449219 133.550781 C 209.949219 131.382812 210.148438 129.199219 210.050781 127 C 209.515625 128.933594 208.816406 130.800781 207.949219 132.601562 C 209.617188 134.5 211.417969 136.285156 213.351562 137.949219 M 295.75 100.398438 C 295.785156 102.367188 295.617188 104.285156 295.25 106.148438 C 295.082031 104.582031 294.867188 102.984375 294.601562 101.351562 C 294.332031 99.683594 293.882812 98.117188 293.25 96.648438 C 293.285156 97.785156 293.300781 98.933594 293.300781 100.101562 C 293.300781 101.234375 293.234375 102.367188 293.101562 103.5 C 292.765625 101.832031 292.398438 100.199219 292 98.601562 C 291.566406 97 291.015625 95.417969 290.351562 93.851562 C 290.648438 95.917969 290.667969 98 290.398438 100.101562 C 290.035156 98.800781 289.617188 97.367188 289.148438 95.800781 C 288.648438 94.265625 287.984375 92.949219 287.148438 91.851562 C 287.382812 92.917969 287.601562 94.015625 287.800781 95.148438 C 288 96.25 288.066406 97.367188 288 98.5 C 287.066406 96.300781 286.082031 94.132812 285.050781 92 C 285.25 93.367188 285.417969 94.75 285.550781 96.148438 C 284.882812 94.851562 284.148438 93.535156 283.351562 92.199219 C 282.515625 90.867188 281.484375 89.785156 280.25 88.949219 C 281.285156 90.75 282.214844 92.617188 283.050781 94.550781 C 282.015625 93.75 281.066406 92.851562 280.199219 91.851562 C 279.367188 90.882812 278.515625 89.917969 277.648438 88.949219 C 278.382812 91.015625 278.050781 91.734375 276.648438 91.101562 C 279.882812 93.066406 282.734375 95.082031 285.199219 97.148438 C 287.667969 99.214844 289.699219 101.484375 291.300781 103.949219 C 292.867188 106.449219 293.933594 109.332031 294.5 112.601562 C 295.433594 109.035156 295.984375 105.332031 296.148438 101.5 C 296.015625 101.132812 295.882812 100.765625 295.75 100.398438 M 209.351562 116.300781 C 208.449219 116.632812 207.699219 117.199219 207.101562 118 C 207.332031 116.964844 207.648438 115.984375 208.050781 115.050781 C 207.515625 115.316406 207.015625 115.765625 206.550781 116.398438 C 206.082031 117 205.714844 117.515625 205.449219 117.949219 C 205.75 116.417969 206.300781 114.964844 207.101562 113.601562 C 206.332031 114.066406 205.699219 114.683594 205.199219 115.449219 C 204.699219 116.214844 204.214844 116.984375 203.75 117.75 C 204.183594 116.082031 204.785156 114.484375 205.550781 112.949219 C 204.75 113.582031 204.066406 114.367188 203.5 115.300781 C 202.933594 116.234375 202.382812 117.132812 201.851562 118 C 201.851562 117.265625 201.984375 116.566406 202.25 115.898438 C 202.515625 115.265625 202.816406 114.632812 203.148438 114 C 202.582031 114.300781 202.082031 114.765625 201.648438 115.398438 C 201.214844 116.035156 200.832031 116.699219 200.5 117.398438 C 200.167969 118.132812 199.882812 118.765625 199.648438 119.300781 C 199.917969 117.734375 200.265625 116.183594 200.699219 114.648438 C 199.964844 115.550781 199.398438 116.566406 199 117.699219 C 199.667969 119.5 200.449219 121.25 201.351562 122.949219 C 202.484375 122.316406 203.601562 121.683594 204.699219 121.050781 C 205.800781 120.417969 206.765625 119.734375 207.601562 119 C 208.433594 118.234375 209.015625 117.332031 209.351562 116.300781 M 238.699219 51.601562 C 235.199219 51.601562 231.765625 51.882812 228.398438 52.449219 C 221.964844 54.882812 216.300781 58.417969 211.398438 63.050781 C 206.464844 67.683594 202.617188 73.117188 199.851562 79.351562 C 197.082031 85.582031 195.667969 92.332031 195.601562 99.601562 C 195.632812 104.601562 196.332031 109.382812 197.699219 113.949219 C 198.433594 112.417969 199.433594 111.082031 200.699219 109.949219 C 201.601562 109.25 202.582031 108.734375 203.648438 108.398438 C 204.714844 108.066406 205.765625 107.734375 206.800781 107.398438 C 207.867188 107.035156 208.816406 106.449219 209.648438 105.648438 C 208.714844 105.617188 207.765625 105.714844 206.800781 105.949219 C 205.867188 106.183594 204.949219 106.398438 204.050781 106.601562 C 205.515625 105.800781 207.015625 105.050781 208.550781 104.351562 C 207.382812 104.351562 206.25 104.515625 205.148438 104.851562 C 204.015625 105.183594 202.917969 105.550781 201.851562 105.949219 C 203.214844 104.949219 204.699219 104.183594 206.300781 103.648438 C 205.265625 103.714844 204.234375 103.933594 203.199219 104.300781 C 202.132812 104.632812 201.117188 104.984375 200.148438 105.351562 C 200.949219 104.484375 201.851562 103.785156 202.851562 103.25 C 203.882812 102.714844 204.949219 102.265625 206.050781 101.898438 C 204.582031 101.800781 203.082031 102.050781 201.550781 102.648438 C 200.050781 103.25 198.667969 103.867188 197.398438 104.5 C 201.234375 101.101562 204.851562 99.199219 208.25 98.800781 C 211.617188 98.398438 214.699219 99.316406 217.5 101.550781 C 220.300781 103.816406 222.75 107.234375 224.851562 111.800781 C 225.183594 110.367188 225.382812 108.898438 225.449219 107.398438 C 225.851562 108.433594 226.199219 109.484375 226.5 110.550781 C 227.433594 109.351562 228.535156 108.367188 229.800781 107.601562 C 228.867188 109.199219 228 110.851562 227.199219 112.550781 C 229.734375 112.484375 231.917969 112.832031 233.75 113.601562 C 235.582031 114.398438 237.117188 115.5 238.351562 116.898438 C 238.25 114.433594 238.617188 112.035156 239.449219 109.699219 C 240.117188 108.035156 241.101562 106.5 242.398438 105.101562 C 243.699219 103.667969 245.050781 102.300781 246.449219 101 C 247.851562 99.667969 249.066406 98.316406 250.101562 96.949219 C 251.132812 95.550781 251.699219 94.050781 251.800781 92.449219 C 250.800781 93.148438 250.066406 94.082031 249.601562 95.25 C 249.5 93.949219 249.535156 92.632812 249.699219 91.300781 C 249.167969 91.800781 248.714844 92.515625 248.351562 93.449219 C 248.015625 94.382812 247.734375 95.167969 247.5 95.800781 C 247.367188 93.765625 247.566406 91.785156 248.101562 89.851562 C 247.300781 90.683594 246.714844 91.648438 246.351562 92.75 C 245.984375 93.851562 245.648438 94.949219 245.351562 96.050781 C 245.351562 93.882812 245.550781 91.714844 245.949219 89.550781 C 245.183594 90.582031 244.601562 91.785156 244.199219 93.148438 C 243.832031 94.484375 243.464844 95.765625 243.101562 97 C 242.867188 96.101562 242.800781 95.199219 242.898438 94.300781 C 243 93.433594 243.148438 92.550781 243.351562 91.648438 C 242.75 92.214844 242.285156 92.949219 241.949219 93.851562 C 241.617188 94.785156 241.382812 95.75 241.25 96.75 C 241.082031 97.75 240.933594 98.617188 240.800781 99.351562 C 240.601562 97.351562 240.515625 95.332031 240.550781 93.300781 C 240.082031 94.398438 239.765625 95.566406 239.601562 96.800781 C 239.433594 98.066406 239.285156 99.265625 239.148438 100.398438 C 238.617188 98.800781 238.433594 97.148438 238.601562 95.449219 C 237.867188 96.617188 237.300781 97.867188 236.898438 99.199219 C 236.5 100.535156 236.148438 101.851562 235.851562 103.148438 C 235.851562 101.417969 235.917969 99.632812 236.050781 97.800781 C 236.148438 95.964844 236.417969 94.167969 236.851562 92.398438 C 237.285156 90.632812 238 89 239 87.5 C 239.867188 86.332031 240.898438 85.367188 242.101562 84.601562 C 243.332031 83.867188 244.535156 83.101562 245.699219 82.300781 C 246.867188 81.5 247.832031 80.464844 248.601562 79.199219 C 247.433594 79.5 246.300781 79.949219 245.199219 80.550781 C 244.132812 81.148438 243.066406 81.714844 242 82.25 C 243.566406 80.785156 245.183594 79.367188 246.851562 78 C 245.417969 78.398438 244.066406 78.984375 242.800781 79.75 C 241.5 80.550781 240.265625 81.367188 239.101562 82.199219 C 240.433594 80.5 242.015625 79.050781 243.851562 77.851562 C 242.550781 78.285156 241.332031 78.898438 240.199219 79.699219 C 239.035156 80.5 237.898438 81.265625 236.800781 82 C 237.5 80.667969 238.382812 79.5 239.449219 78.5 C 240.515625 77.535156 241.667969 76.632812 242.898438 75.800781 C 241.667969 76 240.484375 76.449219 239.351562 77.148438 C 238.183594 77.816406 237.082031 78.566406 236.050781 79.398438 C 235.015625 80.265625 234.035156 81.101562 233.101562 81.898438 C 236.699219 76.433594 240.515625 72.882812 244.550781 71.25 C 248.617188 69.617188 252.75 69.734375 256.949219 71.601562 C 261.148438 73.433594 265.285156 76.816406 269.351562 81.75 C 269.285156 79.851562 269.050781 77.964844 268.648438 76.101562 C 269.484375 77.265625 270.265625 78.449219 271 79.648438 C 271.734375 77.882812 272.765625 76.300781 274.101562 74.898438 C 273.433594 77.199219 272.898438 79.535156 272.5 81.898438 C 276.535156 80.734375 280.082031 80.582031 283.148438 81.449219 C 286.183594 82.316406 288.765625 83.917969 290.898438 86.25 C 293.035156 88.582031 294.714844 91.351562 295.949219 94.550781 C 295.515625 90.417969 294.617188 86.449219 293.25 82.648438 C 289.515625 76.417969 284.882812 70.984375 279.351562 66.351562 C 273.816406 61.714844 267.601562 58.101562 260.699219 55.5 C 253.800781 52.933594 246.464844 51.632812 238.699219 51.601562 M 274 141.351562 C 273.433594 137.515625 272.832031 133.933594 272.199219 130.601562 C 271.566406 127.300781 270.917969 124.433594 270.25 122 C 269.582031 119.535156 268.917969 117.667969 268.25 116.398438 C 268.183594 116.867188 268.132812 117.5 268.101562 118.300781 C 268.101562 119.132812 268.066406 119.882812 268 120.550781 C 267.933594 121.25 267.800781 121.617188 267.601562 121.648438 C 267.367188 121.683594 267.035156 121.148438 266.601562 120.050781 C 266.5 121.515625 266.382812 123 266.25 124.5 C 266.050781 123.367188 265.816406 122.214844 265.550781 121.050781 C 265.285156 119.917969 265.035156 118.765625 264.800781 117.601562 C 264.734375 118.601562 264.699219 119.550781 264.699219 120.449219 C 264.667969 121.351562 264.714844 122.300781 264.851562 123.300781 C 264.351562 120.898438 263.964844 118.449219 263.699219 115.949219 C 263.398438 113.449219 263.214844 110.964844 263.148438 108.5 C 262.949219 109.464844 262.800781 110.433594 262.699219 111.398438 C 262.632812 109.964844 262.515625 108.550781 262.351562 107.148438 C 262.183594 105.714844 262.050781 104.300781 261.949219 102.898438 C 261.617188 104.566406 261.316406 106.234375 261.050781 107.898438 C 260.785156 109.601562 260.398438 111.25 259.898438 112.851562 C 260.035156 109.582031 259.785156 106.332031 259.148438 103.101562 C 258.851562 104.867188 258.617188 106.632812 258.449219 108.398438 C 258.285156 110.167969 258 111.917969 257.601562 113.648438 C 257.601562 112.25 257.464844 110.851562 257.199219 109.449219 C 256.933594 108.082031 256.601562 106.714844 256.199219 105.351562 C 256.199219 108.316406 255.867188 111.25 255.199219 114.148438 C 255.101562 112.550781 254.851562 110.984375 254.449219 109.449219 C 254.050781 107.882812 253.617188 106.351562 253.148438 104.851562 C 252.714844 107.316406 252.535156 109.832031 252.601562 112.398438 C 252.699219 114.964844 252.785156 117.484375 252.851562 119.949219 C 252.515625 118.851562 252.214844 117.714844 251.949219 116.550781 C 251.648438 115.417969 251.199219 114.351562 250.601562 113.351562 C 250.667969 114.75 250.714844 116.148438 250.75 117.550781 C 250.785156 118.949219 250.699219 120.351562 250.5 121.75 C 250.398438 120.382812 250.167969 119.050781 249.800781 117.75 C 249.464844 116.417969 249.082031 115.101562 248.648438 113.800781 C 248.484375 115.5 248.433594 117.214844 248.5 118.949219 C 248.566406 120.683594 248.617188 122.398438 248.648438 124.101562 C 247.949219 122.265625 247.433594 120.367188 247.101562 118.398438 C 246.832031 121.132812 246.800781 123.867188 247 126.601562 C 246.234375 125.035156 245.714844 123.332031 245.449219 121.5 C 245.183594 119.632812 244.949219 117.851562 244.75 116.148438 C 244.351562 118.285156 244.214844 120.449219 244.351562 122.648438 C 244.484375 124.882812 244.714844 127.066406 245.050781 129.199219 C 244.214844 127.035156 243.566406 124.816406 243.101562 122.550781 C 242.601562 120.285156 242.148438 118.015625 241.75 115.75 C 241.417969 117.882812 241.285156 120.035156 241.351562 122.199219 C 242.214844 124.964844 242.601562 127.898438 242.5 131 C 242.367188 134.132812 241.851562 137.117188 240.949219 139.949219 C 241.25 137.082031 241.265625 134.214844 241 131.351562 C 240.632812 132.816406 240.117188 134.234375 239.449219 135.601562 C 239.648438 134.367188 239.816406 133.101562 239.949219 131.800781 C 240.082031 130.5 240.050781 129.234375 239.851562 128 C 239.515625 129.734375 239.015625 131.433594 238.351562 133.101562 C 238.449219 131.800781 238.5 130.5 238.5 129.199219 C 238.535156 127.898438 238.449219 126.582031 238.25 125.25 C 238.050781 126.882812 237.648438 128.464844 237.050781 130 C 237.015625 128.933594 236.984375 127.765625 236.949219 126.5 C 236.882812 125.234375 236.648438 124.101562 236.25 123.101562 C 236.183594 123.964844 236.117188 124.832031 236.050781 125.699219 C 235.984375 126.601562 235.816406 127.464844 235.550781 128.300781 C 235.285156 126.433594 234.984375 124.582031 234.648438 122.75 C 234.515625 123.851562 234.351562 124.933594 234.148438 126 C 233.917969 124.898438 233.632812 123.765625 233.300781 122.601562 C 232.933594 121.398438 232.367188 120.367188 231.601562 119.5 C 232.035156 121.066406 232.367188 122.667969 232.601562 124.300781 C 231.964844 123.464844 231.433594 122.601562 231 121.699219 C 230.566406 120.765625 230.117188 119.851562 229.648438 118.949219 C 229.785156 120.648438 229.382812 121.117188 228.449219 120.351562 C 231.050781 123.082031 233.148438 125.75 234.75 128.351562 C 236.382812 130.984375 237.332031 133.800781 237.601562 136.800781 C 237.867188 139.765625 237.316406 143.199219 235.949219 147.101562 C 236.050781 144.535156 236.050781 141.984375 235.949219 139.449219 C 235.648438 140.617188 235.398438 141.785156 235.199219 142.949219 C 235 144.148438 234.734375 145.316406 234.398438 146.449219 C 234.265625 145.648438 234.148438 144.832031 234.050781 144 C 233.949219 144.433594 233.785156 144.851562 233.550781 145.25 C 233.550781 143.984375 233.601562 142.734375 233.699219 141.5 C 233.800781 140.265625 233.832031 139.015625 233.800781 137.75 C 233.464844 138.882812 233.132812 140.015625 232.800781 141.148438 C 232.5 142.285156 232.082031 143.382812 231.550781 144.449219 C 231.816406 141.984375 232 139.5 232.101562 137 C 231.699219 138.367188 231.082031 139.617188 230.25 140.75 C 230.515625 139.816406 230.667969 138.816406 230.699219 137.75 C 230.734375 136.683594 230.617188 135.667969 230.351562 134.699219 C 230.050781 135.867188 229.632812 137 229.101562 138.101562 C 229.234375 136.632812 229.285156 135.148438 229.25 133.648438 C 228.582031 134.683594 228.066406 135.785156 227.699219 136.949219 C 227.832031 135.183594 227.699219 133.433594 227.300781 131.699219 C 227.132812 133.699219 226.734375 135.632812 226.101562 137.5 C 226.066406 136.800781 226.015625 136.101562 225.949219 135.398438 C 225.882812 134.699219 225.851562 134 225.851562 133.300781 C 225.515625 134.101562 225.300781 134.417969 225.199219 134.25 C 225.066406 134.082031 224.984375 133.667969 224.949219 133 C 224.917969 132.332031 224.898438 131.632812 224.898438 130.898438 C 224.898438 130.199219 224.851562 129.683594 224.75 129.351562 C 224.582031 130.949219 224.25 132.582031 223.75 134.25 C 223.285156 135.949219 222.617188 137.484375 221.75 138.851562 C 222.351562 136.816406 222.699219 134.734375 222.800781 132.601562 C 222.300781 134.066406 221.714844 135.5 221.050781 136.898438 C 221.417969 135.167969 221.535156 133.417969 221.398438 131.648438 C 221.035156 132.484375 220.800781 133.882812 220.699219 135.851562 C 220.601562 137.816406 220.550781 140.214844 220.550781 143.050781 C 224.285156 145.25 228.285156 146.933594 232.550781 148.101562 C 236.816406 149.300781 241.265625 149.898438 245.898438 149.898438 C 251.132812 149.867188 256.117188 149.117188 260.851562 147.648438 C 265.582031 146.148438 269.964844 144.050781 274 141.351562 M 198.550781 116.601562 C 198.515625 116.464844 198.464844 116.351562 198.398438 116.25 C 198.535156 116.117188 198.648438 116 198.75 115.898438 C 198.683594 116.132812 198.617188 116.367188 198.550781 116.601562 "/>
    <path style="stroke:none;fill-rule:evenodd;fill:rgb(0.392157%,23.137255%,50.980392%);fill-opacity:1" d="M 283.550781 159.898438 C 283.515625 159.898438 283.484375 159.898438 283.449219 159.898438 C 282.816406 155.964844 282.082031 152.132812 281.25 148.398438 C 280.449219 144.667969 279.617188 141.101562 278.75 137.699219 C 277.449219 132.667969 276.234375 128.101562 275.101562 124 C 274 119.898438 273.117188 116.417969 272.449219 113.550781 C 271.816406 110.683594 271.582031 108.601562 271.75 107.300781 C 272.515625 109.433594 272.949219 111.632812 273.050781 113.898438 C 273.417969 111.964844 273.667969 110.015625 273.800781 108.050781 C 274.367188 110.683594 274.617188 113.351562 274.550781 116.050781 C 275.148438 114.082031 275.484375 111.984375 275.550781 109.75 C 275.582031 107.515625 275.433594 105.382812 275.101562 103.351562 C 275.300781 103.714844 275.535156 104.351562 275.800781 105.25 C 276.066406 106.148438 276.316406 107 276.550781 107.800781 C 276.816406 108.632812 277.066406 109.132812 277.300781 109.300781 C 277.5 109.464844 277.667969 109 277.800781 107.898438 C 278.035156 108.765625 278.300781 109.617188 278.601562 110.449219 C 278.898438 111.285156 279.183594 112.132812 279.449219 113 C 279.617188 110.433594 279.484375 107.898438 279.050781 105.398438 C 280.082031 107.398438 280.816406 109.5 281.25 111.699219 C 281.351562 110.167969 281.617188 108.648438 282.050781 107.148438 C 282.617188 108.984375 283.050781 110.832031 283.351562 112.699219 C 283.648438 111.199219 283.800781 109.667969 283.800781 108.101562 C 284.433594 109.199219 284.898438 110.398438 285.199219 111.699219 C 285.535156 113.035156 285.699219 114.332031 285.699219 115.601562 C 286.332031 113.898438 286.667969 112.148438 286.699219 110.351562 C 287.398438 113.449219 288 116.566406 288.5 119.699219 C 288.800781 118.234375 288.949219 116.734375 288.949219 115.199219 C 288.984375 113.699219 289.015625 112.199219 289.050781 110.699219 C 289.484375 112.234375 289.851562 113.785156 290.148438 115.351562 C 290.449219 116.917969 290.816406 118.464844 291.25 120 C 291.382812 119.464844 291.449219 118.917969 291.449219 118.351562 C 291.617188 118.816406 291.800781 119.265625 292 119.699219 C 292.234375 120.199219 292.449219 120.699219 292.648438 121.199219 C 292.683594 120.234375 292.667969 119.25 292.601562 118.25 C 292.535156 117.25 292.464844 116.234375 292.398438 115.199219 C 292.300781 114.167969 292.25 113.132812 292.25 112.101562 C 292.648438 113.433594 293.035156 114.765625 293.398438 116.101562 C 293.898438 117.898438 294.367188 119.699219 294.800781 121.5 C 295.066406 118.167969 294.964844 115.199219 294.5 112.601562 C 293.933594 109.332031 292.867188 106.449219 291.300781 103.949219 C 289.734375 101.449219 287.714844 99.167969 285.25 97.101562 C 282.785156 95.066406 279.933594 93.050781 276.699219 91.050781 C 276.234375 90.851562 275.667969 90.515625 275 90.050781 C 275.566406 90.382812 276.132812 90.714844 276.699219 91.050781 C 278.066406 91.683594 278.382812 90.984375 277.648438 88.949219 C 278.550781 89.917969 279.417969 90.882812 280.25 91.851562 C 281.082031 92.851562 282.035156 93.734375 283.101562 94.5 C 282.265625 92.601562 281.316406 90.75 280.25 88.949219 C 281.515625 89.75 282.550781 90.832031 283.351562 92.199219 C 284.183594 93.535156 284.917969 94.832031 285.550781 96.101562 C 285.449219 94.734375 285.300781 93.351562 285.101562 91.949219 C 286.132812 94.117188 287.117188 96.285156 288.050781 98.449219 C 288.117188 97.351562 288.035156 96.234375 287.800781 95.101562 C 287.601562 94 287.382812 92.917969 287.148438 91.851562 C 288.015625 92.949219 288.683594 94.265625 289.148438 95.800781 C 289.648438 97.332031 290.082031 98.75 290.449219 100.050781 C 290.683594 97.984375 290.648438 95.917969 290.351562 93.851562 C 291.015625 95.382812 291.566406 96.964844 292 98.601562 C 292.398438 100.199219 292.765625 101.832031 293.101562 103.5 C 293.265625 102.367188 293.351562 101.214844 293.351562 100.050781 C 293.316406 98.917969 293.285156 97.785156 293.25 96.648438 C 293.882812 98.117188 294.351562 99.667969 294.648438 101.300781 C 294.917969 102.964844 295.117188 104.582031 295.25 106.148438 C 295.648438 104.25 295.832031 102.332031 295.800781 100.398438 C 295.933594 100.765625 296.050781 101.132812 296.148438 101.5 C 297.25 104.632812 298.066406 107.816406 298.601562 111.050781 C 298.734375 108.316406 298.582031 105.535156 298.148438 102.699219 C 297.714844 99.867188 296.984375 97.148438 295.949219 94.550781 C 294.714844 91.351562 293.050781 88.582031 290.949219 86.25 C 288.816406 83.917969 286.214844 82.316406 283.148438 81.449219 C 280.082031 80.550781 276.535156 80.683594 272.5 81.851562 C 272.933594 79.515625 273.464844 77.199219 274.101562 74.898438 C 272.765625 76.300781 271.75 77.882812 271.050781 79.648438 C 270.285156 78.449219 269.5 77.265625 268.699219 76.101562 C 269.101562 77.964844 269.316406 79.851562 269.351562 81.75 C 265.285156 76.816406 261.148438 73.433594 256.949219 71.601562 C 252.75 69.734375 248.632812 69.617188 244.601562 71.25 C 240.566406 72.851562 236.75 76.382812 233.148438 81.851562 C 234.050781 81.082031 235.015625 80.265625 236.050781 79.398438 C 237.117188 78.535156 238.214844 77.765625 239.351562 77.101562 C 240.515625 76.433594 241.699219 75.984375 242.898438 75.75 C 241.699219 76.617188 240.550781 77.535156 239.449219 78.5 C 238.382812 79.5 237.5 80.667969 236.800781 82 C 237.898438 81.234375 239.035156 80.449219 240.199219 79.648438 C 241.367188 78.851562 242.582031 78.25 243.851562 77.851562 C 242.015625 79.015625 240.433594 80.464844 239.101562 82.199219 C 240.300781 81.332031 241.535156 80.515625 242.800781 79.75 C 244.066406 78.949219 245.417969 78.367188 246.851562 78 C 245.183594 79.332031 243.582031 80.75 242.050781 82.25 C 243.082031 81.683594 244.148438 81.101562 245.25 80.5 C 246.316406 79.933594 247.433594 79.5 248.601562 79.199219 C 247.832031 80.464844 246.867188 81.5 245.699219 82.300781 C 244.535156 83.066406 243.351562 83.832031 242.148438 84.601562 C 240.949219 85.367188 239.917969 86.332031 239.050781 87.5 C 238.050781 88.964844 237.332031 90.582031 236.898438 92.351562 C 236.433594 94.117188 236.148438 95.933594 236.050781 97.800781 C 235.949219 99.632812 235.898438 101.417969 235.898438 103.148438 C 236.167969 101.816406 236.5 100.484375 236.898438 99.148438 C 237.332031 97.816406 237.917969 96.582031 238.648438 95.449219 C 238.484375 97.148438 238.648438 98.800781 239.148438 100.398438 C 239.285156 99.234375 239.433594 98.035156 239.601562 96.800781 C 239.765625 95.535156 240.082031 94.367188 240.550781 93.300781 C 240.550781 95.332031 240.648438 97.351562 240.851562 99.351562 C 240.984375 98.617188 241.117188 97.75 241.25 96.75 C 241.417969 95.75 241.667969 94.785156 242 93.851562 C 242.300781 92.917969 242.765625 92.183594 243.398438 91.648438 C 243.199219 92.550781 243.035156 93.433594 242.898438 94.300781 C 242.800781 95.199219 242.867188 96.101562 243.101562 97 C 243.464844 95.765625 243.851562 94.484375 244.25 93.148438 C 244.617188 91.785156 245.199219 90.582031 246 89.550781 C 245.566406 91.714844 245.367188 93.882812 245.398438 96.050781 C 245.699219 94.949219 246.035156 93.851562 246.398438 92.75 C 246.765625 91.648438 247.351562 90.683594 248.148438 89.851562 C 247.617188 91.785156 247.417969 93.765625 247.550781 95.800781 C 247.75 95.167969 248.035156 94.382812 248.398438 93.449219 C 248.734375 92.515625 249.183594 91.800781 249.75 91.300781 C 249.582031 92.601562 249.535156 93.917969 249.601562 95.25 C 250.066406 94.082031 250.800781 93.148438 251.800781 92.449219 C 251.699219 94.050781 251.132812 95.550781 250.101562 96.949219 C 249.101562 98.316406 247.882812 99.648438 246.449219 100.949219 C 245.050781 102.285156 243.699219 103.648438 242.398438 105.050781 C 241.132812 106.449219 240.167969 107.984375 239.5 109.648438 C 238.667969 112.015625 238.285156 114.417969 238.351562 116.851562 C 237.148438 115.449219 235.617188 114.367188 233.75 113.601562 C 231.917969 112.832031 229.734375 112.484375 227.199219 112.550781 C 228 110.851562 228.882812 109.199219 229.851562 107.601562 C 228.550781 108.367188 227.449219 109.351562 226.550781 110.550781 C 226.214844 109.484375 225.867188 108.433594 225.5 107.398438 C 225.433594 108.867188 225.214844 110.332031 224.851562 111.800781 C 222.785156 107.234375 220.351562 103.816406 217.550781 101.550781 C 214.75 99.316406 211.648438 98.382812 208.25 98.75 C 204.851562 99.148438 201.234375 101.066406 197.398438 104.5 C 198.699219 103.867188 200.101562 103.25 201.601562 102.648438 C 203.101562 102.015625 204.582031 101.75 206.050781 101.851562 C 204.949219 102.25 203.898438 102.714844 202.898438 103.25 C 201.898438 103.785156 201 104.484375 200.199219 105.351562 C 201.167969 104.984375 202.167969 104.617188 203.199219 104.25 C 204.234375 103.882812 205.285156 103.683594 206.351562 103.648438 C 204.714844 104.148438 203.214844 104.917969 201.851562 105.949219 C 202.949219 105.550781 204.050781 105.183594 205.148438 104.851562 C 206.285156 104.515625 207.433594 104.351562 208.601562 104.351562 C 207.066406 105.050781 205.550781 105.800781 204.050781 106.601562 C 204.984375 106.398438 205.917969 106.183594 206.851562 105.949219 C 207.785156 105.714844 208.714844 105.601562 209.648438 105.601562 C 208.816406 106.398438 207.882812 106.984375 206.851562 107.351562 C 205.785156 107.714844 204.714844 108.066406 203.648438 108.398438 C 202.617188 108.734375 201.648438 109.25 200.75 109.949219 C 199.484375 111.050781 198.464844 112.382812 197.699219 113.949219 C 197.132812 115.117188 196.648438 116.316406 196.25 117.550781 C 195.816406 118.785156 195.449219 119.984375 195.148438 121.148438 C 195.582031 120.285156 196.066406 119.417969 196.601562 118.550781 C 197.132812 117.683594 197.75 116.898438 198.449219 116.199219 C 198.550781 116.101562 198.667969 116 198.800781 115.898438 C 198.699219 116.101562 198.617188 116.332031 198.550781 116.601562 C 198.25 117.601562 198.132812 118.648438 198.199219 119.75 C 198.464844 119.082031 198.734375 118.398438 199 117.699219 C 199.433594 116.566406 200 115.550781 200.699219 114.648438 C 200.265625 116.183594 199.917969 117.714844 199.648438 119.25 C 199.917969 118.714844 200.199219 118.101562 200.5 117.398438 C 200.832031 116.667969 201.214844 115.984375 201.648438 115.351562 C 202.082031 114.714844 202.582031 114.25 203.148438 113.949219 C 202.816406 114.582031 202.515625 115.234375 202.25 115.898438 C 201.984375 116.535156 201.851562 117.214844 201.851562 117.949219 C 202.382812 117.117188 202.933594 116.214844 203.5 115.25 C 204.066406 114.316406 204.75 113.550781 205.550781 112.949219 C 204.816406 114.484375 204.234375 116.066406 203.800781 117.699219 C 204.234375 116.933594 204.699219 116.167969 205.199219 115.398438 C 205.734375 114.667969 206.382812 114.050781 207.148438 113.550781 C 206.351562 114.949219 205.785156 116.417969 205.449219 117.949219 C 205.75 117.515625 206.132812 116.984375 206.601562 116.351562 C 207.035156 115.714844 207.515625 115.265625 208.050781 115 C 207.648438 115.964844 207.351562 116.949219 207.148438 117.949219 C 207.75 117.183594 208.5 116.632812 209.398438 116.300781 C 209.035156 117.332031 208.433594 118.214844 207.601562 118.949219 C 206.765625 119.714844 205.800781 120.417969 204.699219 121.050781 C 203.601562 121.648438 202.484375 122.265625 201.351562 122.898438 C 200.417969 123.433594 199.535156 124.015625 198.699219 124.648438 C 197.867188 125.285156 197.148438 126 196.550781 126.800781 C 195.351562 128.566406 194.535156 130.464844 194.101562 132.5 C 193.667969 134.5 193.464844 136.566406 193.5 138.699219 C 193.535156 140.800781 193.632812 142.867188 193.800781 144.898438 C 194.167969 142.734375 194.566406 140.535156 195 138.300781 C 195.433594 136.066406 196.117188 133.917969 197.050781 131.851562 C 196.851562 133.648438 196.714844 135.464844 196.648438 137.300781 C 196.550781 139.101562 196.582031 140.898438 196.75 142.699219 C 196.949219 141.035156 197.214844 139.351562 197.550781 137.648438 C 197.917969 135.949219 198.464844 134.332031 199.199219 132.800781 C 199 134.132812 198.816406 135.515625 198.648438 136.949219 C 198.484375 138.417969 198.515625 139.816406 198.75 141.148438 C 199.183594 139.050781 199.785156 137 200.550781 135 C 200.382812 136.535156 200.382812 138.066406 200.550781 139.601562 C 200.882812 138.300781 201.199219 137 201.5 135.699219 C 201.800781 134.367188 202.183594 133.066406 202.648438 131.800781 C 202.714844 132.867188 202.75 133.933594 202.75 135 C 202.714844 136.101562 202.617188 137.167969 202.449219 138.199219 C 202.882812 137.167969 203.214844 136.132812 203.449219 135.101562 C 203.714844 134.035156 203.964844 132.949219 204.199219 131.851562 C 204.464844 132.75 204.582031 133.667969 204.550781 134.601562 C 204.550781 135.5 204.550781 136.417969 204.550781 137.351562 C 205.082031 135.082031 205.648438 132.785156 206.25 130.449219 C 206.648438 128.882812 207.183594 127.382812 207.851562 125.949219 C 207.984375 128.050781 207.933594 130.148438 207.699219 132.25 C 207.667969 132.648438 207.617188 133.035156 207.550781 133.398438 C 207.683594 133.132812 207.816406 132.851562 207.949219 132.550781 C 208.851562 130.75 209.566406 128.898438 210.101562 127 C 210.101562 128.066406 210.066406 129.167969 210 130.300781 C 209.898438 131.398438 209.714844 132.484375 209.449219 133.550781 C 210.082031 132.316406 210.648438 131.035156 211.148438 129.699219 C 211.648438 128.398438 212.199219 127.117188 212.800781 125.851562 C 212.601562 128.417969 212.117188 130.933594 211.351562 133.398438 C 212.050781 132.265625 212.683594 131.101562 213.25 129.898438 C 213.785156 128.667969 214.351562 127.464844 214.949219 126.300781 C 214.75 127.398438 214.566406 128.5 214.398438 129.601562 C 214.234375 130.699219 214.015625 131.785156 213.75 132.851562 C 214.050781 132.148438 214.367188 131.464844 214.699219 130.800781 C 214.132812 133.132812 213.699219 135.515625 213.398438 137.949219 C 213.199219 139.417969 213.050781 140.867188 212.949219 142.300781 C 213.050781 141.601562 213.183594 140.933594 213.351562 140.300781 C 213.515625 139.667969 213.714844 139.035156 213.949219 138.398438 C 213.984375 138.265625 214.015625 138.132812 214.050781 138 C 214.050781 138.167969 214.050781 138.332031 214.050781 138.5 C 213.984375 140.167969 213.882812 141.832031 213.75 143.5 C 214.148438 142.398438 214.550781 141.300781 214.949219 140.199219 C 215.050781 140.964844 215.167969 141.417969 215.300781 141.550781 C 215.433594 141.683594 215.566406 141.601562 215.699219 141.300781 C 215.867188 141 216.015625 140.617188 216.148438 140.148438 C 216.285156 139.683594 216.433594 139.234375 216.601562 138.800781 C 216.734375 138.367188 216.851562 138.035156 216.949219 137.800781 C 217.117188 138.601562 217.234375 139.648438 217.300781 140.949219 C 217.367188 142.550781 217.332031 144.464844 217.199219 146.699219 C 217.101562 148.898438 216.898438 151.316406 216.601562 153.949219 C 212.734375 153.851562 209.066406 154.101562 205.601562 154.699219 C 202.167969 155.265625 198.984375 156.285156 196.050781 157.75 C 199.214844 157.351562 202.484375 157.167969 205.851562 157.199219 C 209.214844 157.265625 212.667969 157.484375 216.199219 157.851562 C 215.800781 160.882812 215.351562 163.984375 214.851562 167.148438 C 209.648438 166.417969 204.632812 165.734375 199.800781 165.101562 C 194.800781 161.199219 190.484375 156.648438 186.851562 151.449219 C 183.183594 146.285156 180.351562 140.617188 178.351562 134.449219 C 176.351562 128.316406 175.332031 121.832031 175.300781 115 C 175.332031 107.101562 176.683594 99.648438 179.351562 92.648438 C 182.015625 85.648438 185.75 79.351562 190.550781 73.75 C 195.351562 68.183594 200.964844 63.550781 207.398438 59.851562 C 213.832031 56.183594 220.832031 53.714844 228.398438 52.449219 C 231.765625 51.882812 235.214844 51.601562 238.75 51.601562 C 246.515625 51.632812 253.851562 52.933594 260.75 55.5 C 267.617188 58.066406 273.832031 61.683594 279.398438 66.351562 C 284.933594 70.984375 289.566406 76.417969 293.300781 82.648438 C 296.132812 87.417969 298.316406 92.515625 299.851562 97.949219 C 301.382812 103.382812 302.148438 109.066406 302.148438 115 C 302.082031 123.832031 300.417969 132.082031 297.148438 139.75 C 293.882812 147.382812 289.351562 154.101562 283.550781 159.898438 M 220.550781 154.050781 C 220.582031 149.949219 220.582031 146.285156 220.550781 143.050781 C 220.550781 140.214844 220.617188 137.816406 220.75 135.851562 C 220.851562 133.882812 221.082031 132.464844 221.449219 131.601562 C 221.550781 133.398438 221.417969 135.167969 221.050781 136.898438 C 221.75 135.5 222.332031 134.066406 222.800781 132.601562 C 222.734375 134.734375 222.398438 136.816406 221.800781 138.851562 C 222.632812 137.484375 223.300781 135.949219 223.800781 134.25 C 224.300781 132.550781 224.632812 130.898438 224.800781 129.300781 C 224.867188 129.632812 224.917969 130.167969 224.949219 130.898438 C 224.949219 131.632812 224.964844 132.332031 225 133 C 225 133.667969 225.066406 134.082031 225.199219 134.25 C 225.332031 134.417969 225.566406 134.101562 225.898438 133.300781 C 225.898438 134 225.917969 134.699219 225.949219 135.398438 C 226.015625 136.101562 226.066406 136.800781 226.101562 137.5 C 226.734375 135.601562 227.148438 133.667969 227.351562 131.699219 C 227.714844 133.433594 227.851562 135.167969 227.75 136.898438 C 228.117188 135.734375 228.617188 134.648438 229.25 133.648438 C 229.316406 135.117188 229.265625 136.601562 229.101562 138.101562 C 229.632812 137 230.066406 135.867188 230.398438 134.699219 C 230.632812 135.667969 230.734375 136.683594 230.699219 137.75 C 230.667969 138.816406 230.535156 139.816406 230.300781 140.75 C 231.132812 139.617188 231.734375 138.367188 232.101562 137 C 232 139.464844 231.816406 141.933594 231.550781 144.398438 C 232.082031 143.367188 232.515625 142.285156 232.851562 141.148438 C 233.183594 140.015625 233.5 138.882812 233.800781 137.75 C 233.832031 138.984375 233.800781 140.234375 233.699219 141.5 C 233.632812 142.734375 233.601562 143.984375 233.601562 145.25 C 233.800781 144.851562 233.964844 144.433594 234.101562 144 C 234.167969 144.800781 234.265625 145.617188 234.398438 146.449219 C 234.734375 145.285156 235 144.117188 235.199219 142.949219 C 235.398438 141.785156 235.648438 140.617188 235.949219 139.449219 C 236.050781 141.984375 236.050781 144.515625 235.949219 147.050781 C 237.351562 143.183594 237.898438 139.75 237.601562 136.75 C 237.332031 133.75 236.398438 130.949219 234.800781 128.351562 C 233.199219 125.75 231.101562 123.082031 228.5 120.351562 C 228.167969 120.117188 227.800781 119.734375 227.398438 119.199219 C 227.765625 119.601562 228.132812 119.984375 228.5 120.351562 C 229.398438 121.117188 229.785156 120.648438 229.648438 118.949219 C 230.117188 119.851562 230.566406 120.75 231 121.648438 C 231.464844 122.582031 232 123.449219 232.601562 124.25 C 232.367188 122.648438 232.050781 121.066406 231.648438 119.5 C 232.417969 120.367188 232.964844 121.382812 233.300781 122.550781 C 233.632812 123.75 233.917969 124.898438 234.148438 126 C 234.351562 124.898438 234.515625 123.816406 234.648438 122.75 C 234.984375 124.582031 235.285156 126.417969 235.550781 128.25 C 235.816406 127.417969 236 126.566406 236.101562 125.699219 C 236.167969 124.800781 236.214844 123.917969 236.25 123.050781 C 236.683594 124.082031 236.917969 125.234375 236.949219 126.5 C 237.015625 127.765625 237.050781 128.917969 237.050781 129.949219 C 237.648438 128.449219 238.066406 126.882812 238.300781 125.25 C 238.464844 126.550781 238.550781 127.851562 238.550781 129.148438 C 238.515625 130.484375 238.464844 131.800781 238.398438 133.101562 C 239.035156 131.433594 239.535156 129.714844 239.898438 127.949219 C 240.066406 129.214844 240.082031 130.5 239.949219 131.800781 C 239.816406 133.101562 239.648438 134.351562 239.449219 135.550781 C 240.148438 134.214844 240.683594 132.800781 241.050781 131.300781 C 241.285156 134.199219 241.265625 137.082031 241 139.949219 C 241.898438 137.117188 242.398438 134.132812 242.5 131 C 242.632812 127.898438 242.25 124.964844 241.351562 122.199219 C 241.285156 120 241.433594 117.851562 241.800781 115.75 C 242.167969 118.015625 242.601562 120.285156 243.101562 122.550781 C 243.601562 124.785156 244.25 127 245.050781 129.199219 C 244.714844 127.035156 244.484375 124.851562 244.351562 122.648438 C 244.25 120.449219 244.398438 118.285156 244.800781 116.148438 C 244.964844 117.851562 245.183594 119.617188 245.449219 121.449219 C 245.714844 123.316406 246.234375 125.015625 247 126.550781 C 246.800781 123.851562 246.851562 121.132812 247.148438 118.398438 C 247.484375 120.367188 247.984375 122.265625 248.648438 124.101562 C 248.648438 122.398438 248.617188 120.683594 248.550781 118.949219 C 248.484375 117.214844 248.515625 115.5 248.648438 113.800781 C 249.117188 115.101562 249.515625 116.398438 249.851562 117.699219 C 250.183594 119.035156 250.417969 120.382812 250.550781 121.75 C 250.75 120.351562 250.832031 118.949219 250.800781 117.550781 C 250.734375 116.148438 250.667969 114.734375 250.601562 113.300781 C 251.199219 114.332031 251.648438 115.417969 251.949219 116.550781 C 252.25 117.683594 252.566406 118.816406 252.898438 119.949219 C 252.800781 117.449219 252.714844 114.917969 252.648438 112.351562 C 252.582031 109.785156 252.75 107.265625 253.148438 104.800781 C 253.648438 106.332031 254.082031 107.867188 254.449219 109.398438 C 254.851562 110.964844 255.117188 112.535156 255.25 114.101562 C 255.882812 111.234375 256.214844 108.316406 256.25 105.351562 C 256.617188 106.683594 256.933594 108.050781 257.199219 109.449219 C 257.464844 110.851562 257.617188 112.25 257.648438 113.648438 C 258.015625 111.917969 258.285156 110.148438 258.449219 108.351562 C 258.617188 106.582031 258.867188 104.832031 259.199219 103.101562 C 259.800781 106.300781 260.035156 109.550781 259.898438 112.851562 C 260.433594 111.214844 260.832031 109.566406 261.101562 107.898438 C 261.367188 106.199219 261.667969 104.535156 262 102.898438 C 262.101562 104.300781 262.234375 105.714844 262.398438 107.148438 C 262.566406 108.550781 262.683594 109.964844 262.75 111.398438 C 262.816406 110.398438 262.964844 109.433594 263.199219 108.5 C 263.265625 110.964844 263.433594 113.449219 263.699219 115.949219 C 263.964844 118.417969 264.351562 120.867188 264.851562 123.300781 C 264.75 122.300781 264.699219 121.351562 264.699219 120.449219 C 264.699219 119.515625 264.734375 118.566406 264.800781 117.601562 C 265.035156 118.765625 265.285156 119.917969 265.550781 121.050781 C 265.816406 122.183594 266.066406 123.332031 266.300781 124.5 C 266.398438 123 266.5 121.5 266.601562 120 C 267.066406 121.132812 267.398438 121.667969 267.601562 121.601562 C 267.800781 121.566406 267.933594 121.214844 268 120.550781 C 268.066406 119.882812 268.117188 119.132812 268.148438 118.300781 C 268.148438 117.5 268.199219 116.867188 268.300781 116.398438 C 268.964844 117.667969 269.632812 119.515625 270.300781 121.949219 C 270.964844 124.417969 271.617188 127.300781 272.25 130.601562 C 272.882812 133.898438 273.464844 137.464844 274 141.300781 C 274.433594 144.300781 274.816406 147.367188 275.148438 150.5 C 275.515625 153.632812 275.816406 156.765625 276.050781 159.898438 C 269.25 159.667969 262.617188 159.148438 256.148438 158.351562 C 249.683594 157.550781 243.464844 156.714844 237.5 155.851562 C 231.535156 155.015625 225.882812 154.417969 220.550781 154.050781 M 220.050781 167.800781 C 220.25 164.535156 220.382812 161.382812 220.449219 158.351562 C 226.214844 159.117188 232.066406 160.082031 238 161.25 C 243.964844 162.417969 249.898438 163.550781 255.800781 164.648438 C 261.734375 165.75 267.550781 166.601562 273.25 167.199219 C 267.117188 168.5 261.035156 169.300781 255 169.601562 C 248.933594 169.898438 242.984375 169.851562 237.148438 169.449219 C 231.316406 169.082031 225.617188 168.535156 220.050781 167.800781 M 288.898438 159.648438 C 294.234375 153.683594 298.398438 146.898438 301.398438 139.300781 C 304.398438 131.734375 305.917969 123.632812 305.949219 115 C 305.917969 106.765625 304.535156 99 301.800781 91.699219 C 299.066406 84.433594 295.234375 77.851562 290.300781 71.949219 C 285.367188 66.082031 279.601562 61.183594 273 57.25 C 269.167969 54.949219 265.101562 53.050781 260.800781 51.550781 C 253.832031 49.082031 246.484375 47.832031 238.75 47.800781 C 229.417969 47.867188 220.699219 49.632812 212.601562 53.101562 C 204.5 56.566406 197.382812 61.367188 191.25 67.5 C 185.082031 73.667969 180.265625 80.785156 176.800781 88.851562 C 173.332031 96.949219 171.566406 105.667969 171.5 115 C 171.535156 121.5 172.417969 127.734375 174.148438 133.699219 C 175.917969 139.632812 178.398438 145.183594 181.601562 150.351562 C 184.800781 155.515625 188.617188 160.148438 193.050781 164.25 C 188.617188 163.75 184.382812 163.464844 180.351562 163.398438 C 176.316406 163.332031 172.5 163.617188 168.898438 164.25 C 165.332031 164.851562 162.015625 165.898438 158.949219 167.398438 C 163.214844 166.898438 167.667969 166.75 172.300781 166.949219 C 176.933594 167.183594 181.667969 167.632812 186.5 168.300781 C 191.367188 169 196.285156 169.832031 201.25 170.800781 C 205.25 171.535156 209.234375 172.300781 213.199219 173.101562 C 213.398438 173.132812 213.582031 173.167969 213.75 173.199219 C 215.683594 173.566406 217.582031 173.917969 219.449219 174.25 C 224.148438 175.148438 228.800781 175.917969 233.398438 176.550781 C 238.035156 177.214844 242.550781 177.667969 246.949219 177.898438 C 253.285156 178.234375 259.316406 177.882812 265.050781 176.851562 C 269.183594 176.082031 273.082031 174.816406 276.75 173.050781 C 279.515625 171.714844 282.117188 170.035156 284.550781 168 C 284.648438 167.933594 284.75 167.867188 284.851562 167.800781 C 289.648438 167.800781 294.234375 167.316406 298.601562 166.351562 C 302.964844 165.351562 307.035156 163.734375 310.800781 161.5 C 314.601562 159.265625 318 156.234375 321 152.398438 C 315.632812 154.632812 310.265625 156.316406 304.898438 157.449219 C 299.535156 158.582031 294.199219 159.316406 288.898438 159.648438 "/>
  </g>
  <g id="surface4">
    <text style="fill:rgb(1,59,130)" font-family="Satisfy" font-size="30" transform="matrix(1,0,0,1,105.44999999999999,228.65)" xml:space="preserve"><![CDATA[Bayonne Municipal Pool]]></text>
  </g>
</svg>