<svg xmlns="http://www.w3.org/2000/svg" xmlns:xlink="http://www.w3.org/1999/xlink" version="1.1" x="0px" y="0px" viewBox="0 0 100 100" style="enable-background:new 0 0 100 100;" xml:space="preserve"><style type="text/css">
	.st0{stroke:#000000;stroke-miterlimit:10;}
</style><path class="st0" d="M15.9,51.6L15.9,51.6l5.9-0.6h2.5l1.7,0.8L25.6,51l6.2-13.2l0,0c2.1-2.3,5.6-2.5,8-0.5l8.8,7.2  c3.8,3.1,6.5,7.2,7.9,11.9l0,0V59l3,1l0.6-2.5c0,0,0.7-0.6,1.8-1.4c3.5-2.3,7.5-2.7,11.7-0.7l0,0c0,0,0,0,0,0l0.8,1.7  c0.3,0.8,0.5,1.6,0.5,2.5v0l-0.4,1.1h-16h-7.3h-7.2h-7.4h-4.1l1.1-0.9l5.1-1.9c1.7-0.6,3.2-1.7,4.3-3.2l1.5-1.9l1,1.5l0.2,1.3  l0.1-1.8l-8.6-9.8l-0.9-0.2l-2,2.7c-3.3,4.5-7.9,7.8-13.2,9.6l0,0l-3.7-0.9C15.9,54.8,15.1,53.1,15.9,51.6z"></path><path d="M11.9,61l-0.7-0.7c0.1-0.1,2-2.2,4.5-2.1c1.5,0,2.9,0.7,4.1,2.2L19.1,61c-1-1.2-2.1-1.8-3.3-1.8C13.6,59.2,12,61,11.9,61z"></path><path d="M19.2,61l-0.7-0.7c0.1-0.1,2-2.2,4.5-2.1c1.5,0,2.9,0.7,4.1,2.2L26.3,61c-1-1.2-2.1-1.8-3.3-1.8C20.8,59.2,19.2,61,19.2,61z  "></path><path d="M26.5,61l-0.7-0.7c0.1-0.1,2-2.2,4.5-2.1c1.5,0,2.9,0.7,4.1,2.2L33.7,61c-1-1.2-2.1-1.8-3.3-1.8C28.2,59.2,26.6,61,26.5,61z  "></path><path d="M33.8,61L33,60.3c0.1-0.1,2-2.1,4.5-2.1c0,0,0,0,0.1,0c1.5,0,2.9,0.7,4.1,2.2L40.9,61c-1-1.2-2.1-1.8-3.3-1.8  C35.4,59.2,33.8,61,33.8,61z"></path><path d="M41.1,61l-0.7-0.7c0.1-0.1,2-2.1,4.5-2.1c0,0,0,0,0.1,0c1.5,0,2.9,0.7,4.1,2.2L48.3,61c-1-1.2-2.1-1.8-3.3-1.8  C42.8,59.2,41.2,61,41.1,61z"></path><path d="M48.4,61l-0.7-0.7c0.1-0.1,2-2.1,4.5-2.1c0,0,0,0,0.1,0c1.5,0,2.9,0.7,4.1,2.2L55.5,61c-1-1.2-2.1-1.8-3.3-1.8c0,0,0,0,0,0  C50,59.2,48.4,61,48.4,61z"></path><path d="M33.7,61L33,60.3c0.1-0.1,2-2.1,4.5-2.1c0,0,0,0,0.1,0c1.5,0,2.9,0.7,4.1,2.2L40.9,61c-1-1.2-2.1-1.8-3.3-1.8  C35.4,59.2,33.8,61,33.7,61z"></path><path d="M41,61l-0.7-0.7c0.1-0.1,2-2.2,4.5-2.1c1.5,0,2.9,0.7,4.1,2.2L48.1,61c-1-1.2-2.1-1.8-3.3-1.8C42.6,59.2,41,61,41,61z"></path><path d="M48.3,61l-0.7-0.7c0.1-0.1,2-2.1,4.5-2.1c1.5,0,2.9,0.7,4.1,2.2L55.5,61c-1-1.2-2.1-1.8-3.3-1.8c0,0,0,0,0,0  C50,59.2,48.4,61,48.3,61z"></path><path d="M55.6,61l-0.7-0.7c0.1-0.1,2-2.1,4.5-2.1c1.5,0,2.9,0.7,4.1,2.2L62.7,61c-1-1.2-2.1-1.8-3.3-1.8c0,0,0,0,0,0  C57.2,59.2,55.6,61,55.6,61z"></path><path d="M63.1,61l-0.7-0.7c0.1-0.1,2-2.1,4.5-2.1c0,0,0,0,0.1,0c1.5,0,2.9,0.7,4.1,2.2L70.3,61c-1-1.2-2.1-1.8-3.3-1.8  C64.8,59.2,63.2,61,63.1,61z"></path><path d="M70.4,61l-0.7-0.7c0.1-0.1,2-2.1,4.5-2.1c0,0,0,0,0.1,0c1.5,0,2.9,0.7,4.1,2.2L77.5,61c-1-1.2-2.1-1.8-3.3-1.8c0,0,0,0,0,0  C72,59.2,70.4,61,70.4,61z"></path><path d="M63,61l-0.7-0.7c0.1-0.1,2-2.2,4.5-2.1c1.5,0,2.9,0.7,4.1,2.2L70.1,61c-1-1.2-2.1-1.8-3.3-1.8C64.6,59.2,63,61,63,61z"></path><path d="M70.3,61l-0.7-0.7c0.1-0.1,2-2.1,4.5-2.1c1.5,0,2.9,0.7,4.1,2.2L77.5,61c-1-1.2-2.1-1.8-3.3-1.8c0,0,0,0,0,0  C72,59.2,70.4,61,70.3,61z"></path><path d="M77.6,61l-0.7-0.7c0.1-0.1,2-2.1,4.5-2.1c1.5,0,2.9,0.7,4.1,2.2L84.7,61c-1-1.2-2.1-1.8-3.3-1.8c0,0,0,0,0,0  C79.2,59.2,77.6,61,77.6,61z"></path><path d="M84.8,61L84,60.3c0.1-0.1,2-2.1,4.5-2.1c1.5,0,2.9,0.7,4.1,2.2L91.9,61c-1-1.2-2.1-1.8-3.3-1.8c0,0,0,0,0,0  C86.4,59.2,84.8,61,84.8,61z"></path><path d="M8.1,64.2l-0.7-0.7c0.1-0.1,1.9-2.2,4.5-2.1c1.5,0,2.9,0.7,4.1,2.2l-0.8,0.7c-1-1.2-2.1-1.8-3.3-1.8  C9.7,62.3,8.1,64.2,8.1,64.2z"></path><path d="M15.3,64.2l-0.7-0.7c0.1-0.1,2-2.2,4.5-2.1c1.5,0,2.9,0.7,4.1,2.2l-0.8,0.7c-1-1.2-2.1-1.8-3.3-1.8c0,0,0,0,0,0  C17,62.4,15.3,64.2,15.3,64.2z"></path><path d="M22.7,64.2l-0.7-0.7c0.1-0.1,2-2.2,4.5-2.1c1.5,0,2.9,0.7,4.1,2.2l-0.8,0.7c-1-1.2-2.1-1.8-3.3-1.8  C24.3,62.3,22.7,64.2,22.7,64.2z"></path><path d="M29.9,64.2l-0.7-0.7c0.1-0.1,2-2.2,4.5-2.1c1.5,0,2.9,0.7,4.1,2.2L37,64.2c-1-1.2-2.1-1.8-3.3-1.8c0,0,0,0,0,0  C31.6,62.4,29.9,64.2,29.9,64.2z"></path><path d="M37.3,64.2l-0.7-0.7c0.1-0.1,2-2.2,4.5-2.1c1.5,0,2.9,0.7,4.1,2.2l-0.8,0.7c-1-1.2-2.1-1.8-3.3-1.8  C38.9,62.3,37.3,64.2,37.3,64.2z"></path><path d="M44.5,64.2l-0.7-0.7c0.1-0.1,2-2.1,4.5-2.1c0,0,0,0,0.1,0c1.5,0,2.9,0.7,4.1,2.2l-0.8,0.7c-1-1.2-2.1-1.8-3.3-1.8  c0,0,0,0,0,0C46.2,62.4,44.5,64.2,44.5,64.2z"></path><path d="M51.9,64.2l-0.7-0.7c0.1-0.1,2-2.1,4.5-2.1c0,0,0,0,0.1,0c1.5,0,2.9,0.7,4.1,2.2L59,64.2c-1-1.2-2.1-1.8-3.3-1.8  c0,0,0,0,0,0C53.5,62.4,51.9,64.2,51.9,64.2z"></path><path d="M59.1,64.2l-0.7-0.7c0.1-0.1,2-2.1,4.5-2.1c0,0,0,0,0.1,0c1.5,0,2.9,0.7,4.1,2.2l-0.8,0.7c-1-1.2-2.1-1.8-3.3-1.8  c0,0,0,0,0,0C60.7,62.4,59.1,64.2,59.1,64.2z"></path><path d="M29.9,64.2l-0.7-0.7c0.1-0.1,2-2.2,4.5-2.1c1.5,0,2.9,0.7,4.1,2.2L37,64.2c-1-1.2-2.1-1.8-3.3-1.8  C31.5,62.3,29.9,64.2,29.9,64.2z"></path><path d="M37.1,64.2l-0.7-0.7c0.1-0.1,2-2.1,4.5-2.1c0,0,0,0,0.1,0c1.5,0,2.9,0.7,4.1,2.2l-0.8,0.7c-1-1.2-2.1-1.8-3.3-1.8  C38.8,62.3,37.1,64.2,37.1,64.2z"></path><path d="M44.5,64.2l-0.7-0.7c0.1-0.1,2-2.1,4.5-2.1c0,0,0,0,0.1,0c1.5,0,2.9,0.7,4.1,2.2l-0.8,0.7c-1-1.2-2.1-1.8-3.3-1.8  C46.1,62.3,44.5,64.2,44.5,64.2z"></path><path d="M51.7,64.2l-0.7-0.7c0.1-0.1,2-2.1,4.5-2.1c0,0,0,0,0.1,0c1.5,0,2.9,0.7,4.1,2.2l-0.8,0.7c-1-1.2-2.1-1.8-3.3-1.8  c0,0,0,0,0,0C53.4,62.4,51.7,64.2,51.7,64.2z"></path><path d="M59.1,64.2l-0.7-0.7c0.1-0.1,2-2.1,4.5-2.1c0,0,0,0,0.1,0c1.5,0,2.9,0.7,4.1,2.2l-0.8,0.7c-1-1.2-2.1-1.8-3.3-1.8  c0,0,0,0,0,0C60.7,62.4,59.1,64.2,59.1,64.2z"></path><path d="M66.3,64.2l-0.7-0.7c0.1-0.1,2-2.1,4.5-2.1c0,0,0,0,0.1,0c1.5,0,2.9,0.7,4.1,2.2l-0.8,0.7c-1-1.2-2.1-1.8-3.3-1.8  c0,0,0,0,0,0C68,62.4,66.3,64.2,66.3,64.2z"></path><path d="M73.7,64.2l-0.7-0.7c0.1-0.1,2-2.1,4.5-2.1c0,0,0,0,0.1,0c1.5,0,2.9,0.7,4.1,2.2l-0.8,0.7c-1-1.2-2.1-1.8-3.3-1.8  c0,0,0,0,0,0C75.3,62.4,73.7,64.2,73.7,64.2z"></path><path d="M80.9,64.2l-0.7-0.7c0.1-0.1,2-2.1,4.5-2.1c0,0,0,0,0.1,0c1.5,0,2.9,0.7,4.1,2.2L88,64.2c-1-1.2-2.1-1.8-3.3-1.8  c0,0,0,0,0,0C82.5,62.4,80.9,64.2,80.9,64.2z"></path><path d="M11.9,67.3l-0.7-0.7c0.1-0.1,2-2.2,4.5-2.1c1.5,0,2.9,0.7,4.1,2.2l-0.8,0.7c-1-1.2-2.1-1.8-3.3-1.8  C13.6,65.5,12,67.3,11.9,67.3z"></path><path d="M19.2,67.3l-0.7-0.7c0.1-0.1,2-2.1,4.5-2.1c0,0,0,0,0.1,0c1.5,0,2.9,0.7,4.1,2.2l-0.8,0.7c-1-1.2-2.1-1.8-3.3-1.8  C20.8,65.5,19.2,67.3,19.2,67.3z"></path><path d="M26.5,67.3l-0.7-0.7c0.1-0.1,2-2.2,4.5-2.1c1.5,0,2.9,0.7,4.1,2.2l-0.8,0.7c-1-1.2-2.1-1.8-3.3-1.8  C28.2,65.5,26.6,67.3,26.5,67.3z"></path><path d="M33.8,67.3L33,66.7c0.1-0.1,2-2.1,4.5-2.1c0,0,0,0,0.1,0c1.5,0,2.9,0.7,4.1,2.2l-0.8,0.7c-1-1.2-2.1-1.8-3.3-1.8  C35.4,65.5,33.8,67.3,33.8,67.3z"></path><path d="M41.1,67.3l-0.7-0.7c0.1-0.1,2-2.1,4.5-2.1c0,0,0,0,0.1,0c1.5,0,2.9,0.7,4.1,2.2l-0.8,0.7c-1-1.2-2.1-1.8-3.3-1.8  C42.8,65.5,41.2,67.3,41.1,67.3z"></path><path d="M48.4,67.3l-0.7-0.7c0.1-0.1,2-2.1,4.5-2.1c0,0,0,0,0.1,0c1.5,0,2.9,0.7,4.1,2.2l-0.8,0.7c-1-1.2-2.1-1.8-3.3-1.8  c0,0,0,0,0,0C50,65.5,48.4,67.3,48.4,67.3z"></path><path d="M55.7,67.3L55,66.7c0.1-0.1,2-2.1,4.5-2.1c1.5,0,2.9,0.7,4.1,2.2l-0.8,0.7c-1-1.2-2.1-1.8-3.3-1.8  C57.5,65.5,55.8,67.3,55.7,67.3z"></path><path d="M63,67.3l-0.7-0.7c0.1-0.1,2-2.1,4.5-2.1c1.5,0,2.9,0.7,4.1,2.2l-0.8,0.7c-1-1.2-2.1-1.8-3.3-1.8C64.6,65.5,63,67.3,63,67.3  z"></path><path d="M33.7,67.3L33,66.7c0.1-0.1,2-2.1,4.5-2.1c0,0,0,0,0.1,0c1.5,0,2.9,0.7,4.1,2.2l-0.8,0.7c-1-1.2-2.1-1.8-3.3-1.8  C35.4,65.5,33.8,67.3,33.7,67.3z"></path><path d="M41,67.3l-0.7-0.7c0.1-0.1,2-2.2,4.5-2.1c1.5,0,2.9,0.7,4.1,2.2l-0.8,0.7c-1-1.2-2.1-1.8-3.3-1.8C42.6,65.5,41,67.3,41,67.3  z"></path><path d="M48.3,67.3l-0.7-0.7c0.1-0.1,2-2.1,4.5-2.1c1.5,0,2.9,0.7,4.1,2.2l-0.8,0.7c-1-1.2-2.1-1.8-3.3-1.8c0,0,0,0,0,0  C50,65.5,48.4,67.3,48.3,67.3z"></path><path d="M55.6,67.3l-0.7-0.7c0.1-0.1,2-2.1,4.5-2.1c0,0,0,0,0.1,0c1.5,0,2.9,0.7,4.1,2.2l-0.8,0.7c-1-1.2-2.1-1.8-3.3-1.8  C57.3,65.5,55.6,67.3,55.6,67.3z"></path><path d="M62.9,67.3l-0.7-0.7c0.1-0.1,2-2.1,4.5-2.1c0,0,0,0,0.1,0c1.5,0,2.9,0.7,4.1,2.2l-0.8,0.7c-1-1.2-2.1-1.8-3.3-1.8  C64.6,65.5,63,67.3,62.9,67.3z"></path><path d="M70.2,67.3l-0.7-0.7c0.1-0.1,2-2.1,4.5-2.1c0,0,0,0,0.1,0c1.5,0,2.9,0.7,4.1,2.2l-0.8,0.7c-1-1.2-2.1-1.8-3.3-1.8  C71.9,65.5,70.2,67.3,70.2,67.3z"></path><path d="M77.5,67.3l-0.7-0.7c0.1-0.1,2-2.1,4.5-2.1c0,0,0,0,0.1,0c1.5,0,2.9,0.7,4.1,2.2l-0.8,0.7c-1-1.2-2.1-1.8-3.3-1.8  C79.2,65.5,77.6,67.3,77.5,67.3z"></path><path d="M84.8,67.3L84,66.7c0.1-0.1,2-2.1,4.5-2.1c1.5,0,2.9,0.7,4.1,2.2l-0.8,0.7c-1-1.2-2.1-1.8-3.3-1.8  C86.5,65.5,84.8,67.3,84.8,67.3z"></path></svg>