<svg xmlns="http://www.w3.org/2000/svg" xmlns:xlink="http://www.w3.org/1999/xlink" version="1.1" x="0px" y="0px" viewBox="0, 0, 100, 45"><g><path d="M67.856,40.859 C66.128,43.307 63.372,44.908 60.272,44.908 C56.886,44.908 53.923,43.033 52.242,40.184 L52.328,40.15 C50.64,42.953 47.695,44.806 44.343,44.806 C40.946,44.806 37.966,42.907 36.29,40.035 L36.325,40.013 C34.649,42.895 31.663,44.806 28.249,44.806 C25.029,44.806 22.175,43.101 20.465,40.47 L20.488,40.355 C18.806,43.147 15.855,45 12.498,45 C8.203,45 4.571,41.969 3.41,37.794 L37.624,23.472 L31.562,15.625 L0,22.946 L1.567,17.09 L34.866,3.271 L67.856,40.859 z" fill="#000000"></path><g><path d="M73.002,14.816 C67.008,14.816 62.147,19.677 62.147,25.66 C62.147,31.666 67.008,36.539 73.002,36.539 C79.008,36.539 83.869,31.666 83.869,25.66 C83.869,19.677 79.008,14.816 73.002,14.816 z" fill="#000000"></path></g><path d="M100,39.738 C100,39.738 93.938,43.033 85.633,35.712 C85.633,35.712 82.967,44.131 71.414,40.665 C71.414,40.665 77.225,48.363 85.633,42.186 C85.633,42.187 96.076,46.477 100,39.738 z" fill="#000000"></path><path d="M50.281,15.759 C46.626,16.101 43.099,10.347 42.403,2.906 C42.751,6.626 48.959,9.088 56.27,8.404 C59.925,8.063 63.452,13.817 64.148,21.258 C63.8,17.537 57.592,15.076 50.281,15.759" fill="#000000"></path></g></svg>