<svg xmlns="http://www.w3.org/2000/svg" xmlns:xlink="http://www.w3.org/1999/xlink" version="1.1" x="0px" y="0px" viewBox="0 0 100 100" enable-background="new 0 0 100 100" xml:space="preserve"><path fill-rule="evenodd" clip-rule="evenodd" d="M86.176,23.975c0.6,0,1.116,0.25,1.55,0.75c0.467,0.434,0.7,0.984,0.7,1.65  c0,0.633-0.233,1.166-0.7,1.6c-0.434,0.5-0.95,0.75-1.55,0.75c-0.634,0-1.2-0.25-1.7-0.75c-0.467-0.467-0.7-1-0.7-1.6  c0-0.633,0.233-1.184,0.7-1.65C84.976,24.225,85.542,23.975,86.176,23.975z M53.726,22.125v1.25h1.35c0.167,0,0.267,0.033,0.3,0.1  c0.134,0.133,0.2,0.268,0.2,0.4s-0.066,0.25-0.2,0.35c-0.033,0.1-0.133,0.15-0.3,0.15h-1.35v1.35l-0.101,0.35  c-0.166,0.102-0.3,0.15-0.399,0.15l-0.3-0.15c-0.134-0.133-0.2-0.25-0.2-0.35v-1.35h-1.3c-0.134,0-0.233-0.051-0.301-0.15  c-0.133-0.1-0.199-0.217-0.199-0.35s0.066-0.268,0.199-0.4c0.033-0.066,0.134-0.1,0.301-0.1h1.3v-1.25c0-0.1,0.066-0.217,0.2-0.35  c0.066-0.1,0.166-0.15,0.3-0.15c0.133,0,0.267,0.051,0.399,0.15L53.726,22.125z M66.625,15.025c0.301,0.199,0.45,0.566,0.45,1.1  c0,0.434-0.116,0.783-0.35,1.051l-0.101,0.1c-0.333,0.266-0.699,0.4-1.1,0.4c-0.367,0-0.717-0.135-1.05-0.4l-0.101-0.1  c-0.267-0.268-0.399-0.617-0.399-1.051c0-0.5,0.133-0.867,0.399-1.1c0.334-0.334,0.717-0.5,1.15-0.5S66.325,14.691,66.625,15.025z   M65.525,15.525c-0.133,0-0.283,0.049-0.45,0.15l-0.1,0.449l0.1,0.4h0.05c0.167,0.1,0.301,0.15,0.4,0.15  c0.167,0,0.316-0.051,0.45-0.15h0.05l0.05-0.4c0-0.232-0.033-0.383-0.1-0.449C65.842,15.574,65.692,15.525,65.525,15.525z   M61.676,43.875c0.267-0.4,0.199-0.75-0.2-1.051c-0.4-0.266-0.75-0.199-1.05,0.201c-2.967,3.9-3.2,7.949-0.7,12.15  c0.1,0.232,0.316,0.35,0.649,0.35c0.167,0,0.283-0.033,0.351-0.1c0.467-0.268,0.55-0.602,0.25-1  C58.875,50.824,59.108,47.309,61.676,43.875z M69.775,34.426c-0.967,0.199-1.8,0.865-2.5,2c-0.667,1.232-1,2.717-1,4.449  c0,1.699,0.35,3.166,1.05,4.4c0.601,1,1.333,1.633,2.2,1.9l0.15,2c-0.867,0.266-1.617,0.898-2.25,1.898  c-0.467,0.9-0.768,1.885-0.9,2.951c-0.066,0.332-0.1,0.666-0.1,1l2.55-0.451c0.366-0.033,0.75-0.049,1.149-0.049  c0.801,0,1.617,0.1,2.45,0.299v-0.049c0.167,0.033,0.783,0.217,1.851,0.549c0-0.5-0.033-0.967-0.101-1.398  c-0.167-1.102-0.5-2.051-1-2.852c-0.6-1.033-1.333-1.682-2.2-1.949l-0.149-1.9c0.866-0.232,1.6-0.883,2.2-1.949  c0.732-1.234,1.1-2.701,1.1-4.4c0-1.768-0.367-3.25-1.1-4.449c-0.533-0.934-1.184-1.551-1.95-1.852l0.2-3.85l2.75-0.199  c1.833,6.332,2.183,14.232,1.05,23.699c-0.067,0.434-0.134,0.867-0.2,1.301c0.633,0.199,1.133,0.383,1.5,0.549  c0.033-0.398,0.083-0.783,0.15-1.148c1.267-10.234,0.85-18.684-1.25-25.352l-0.101-0.299c4.4,0.166,8.25,1.684,11.55,4.549l1,0.9  c3.7,3.668,5.551,8.117,5.551,13.35v1.451c-0.268,3.5-1.417,6.684-3.45,9.549c-0.333,0.467-0.684,0.918-1.05,1.352  c0.433-0.168,1.3-0.434,2.6-0.801c-0.1,0.033-0.167,0.066-0.2,0.1l0.351-0.15c0.191-0.063,0.399-0.129,0.625-0.199  c-0.205,0.059-0.38,0.107-0.525,0.15l2.15-0.951c0.433-0.232,0.767-0.115,1,0.352c0.199,0.432,0.083,0.766-0.351,1  c-1.933,1-3.649,1.633-5.149,1.898h-0.051c-0.767,0.168-1.433,0.25-2,0.25c-1.699,0-4.583-1.033-8.649-3.1  c-1.101-0.6-2.217-1.15-3.351-1.65h-0.05c-0.8-0.332-1.399-0.549-1.8-0.648h-0.05c-1.3-0.434-2.417-0.65-3.351-0.65  c-0.899,0-1.833,0.117-2.8,0.35c-1.533,0.4-3.1,0.967-4.7,1.699c-2.433,1.102-4.566,1.768-6.399,2c-1,0.135-1.717,0.201-2.15,0.201  c-1.899,0-4.2-0.717-6.899-2.15c-1.134-0.699-2.2-1.199-3.2-1.5c-1-0.334-1.9-0.5-2.7-0.5c-2.066,0-4.684,0.949-7.85,2.85  c-3.4,2.066-5.934,3.1-7.601,3.1c-1.2,0-3.316-0.783-6.35-2.35c-2.566-1.367-4.066-2.117-4.5-2.25  c-1.601,0.066-3.25,0.418-4.95,1.051l-0.15,0.049h-0.05l-0.05,0.051c-0.6,0.199-1.833,0.768-3.7,1.699  c-0.434,0.234-0.767,0.117-1-0.35c-0.2-0.434-0.083-0.766,0.351-1c1.033-0.533,1.899-0.949,2.6-1.25  c1.366-0.566,2.467-0.982,3.3-1.25c0.3-0.467,0.617-0.916,0.95-1.35c5.167-6.699,14.5-10.883,28-12.551h0.05  c2.7-0.365,5.983-0.6,9.851-0.699v-0.051l3.899-0.049l-0.7,2.15c-2.933,1.066-5.116,2.199-6.55,3.398  c-1.8,1.668-2.883,3.867-3.25,6.602c-0.033,0.232-0.066,0.516-0.1,0.85c0.6,0.232,1.1,0.434,1.5,0.6c0.033-0.4,0.066-0.732,0.1-1  c0.233-2.467,1.134-4.434,2.7-5.9c1.267-1.033,3.017-1.967,5.25-2.799c-0.233,1.365-0.35,2.582-0.35,3.648  c0,3.068,0.6,5.934,1.8,8.602c0.133,0.232,0.267,0.5,0.399,0.799h0.101c0.333,0,0.833-0.066,1.5-0.199  c-0.167-0.301-0.317-0.584-0.45-0.85c-1.267-2.533-1.9-5.318-1.9-8.352c0-1.566,0.184-3.115,0.551-4.648  c0.3-1.168,0.699-2.283,1.199-3.352c0.867-1.865,2.134-3.648,3.801-5.35c2.566-2.6,6-4.283,10.3-5.049L69.775,34.426z   M87.075,27.324c0.233-0.266,0.351-0.582,0.351-0.949c0-0.4-0.117-0.732-0.351-1c-0.3-0.268-0.6-0.4-0.899-0.4  c-0.367,0-0.684,0.133-0.95,0.4c-0.3,0.301-0.45,0.633-0.45,1c0,0.334,0.15,0.65,0.45,0.949c0.267,0.268,0.583,0.4,0.95,0.4  C86.476,27.725,86.775,27.592,87.075,27.324z M87.226,37.176c-0.3-0.367-0.634-0.4-1-0.102c-0.367,0.301-0.4,0.65-0.101,1.051  c2.4,3.199,3.601,6.934,3.601,11.199v1.4c-0.067,0.533,0.149,0.801,0.649,0.801l0.101,0.049c0.167,0,0.333-0.066,0.5-0.199  c0.133-0.166,0.2-0.334,0.2-0.5l0.05-1.551C91.226,44.691,89.893,40.643,87.226,37.176z M85.125,35.875  c0.367-0.334,0.367-0.684,0-1.051l-0.6-0.6c-0.333-0.332-0.684-0.332-1.05,0c-0.333,0.367-0.333,0.717,0,1.051l0.6,0.6  c0.134,0.133,0.317,0.199,0.55,0.199C84.825,36.074,84.992,36.008,85.125,35.875z M70.726,67.525  c0.033,0.199-0.017,0.383-0.15,0.549c-0.1,0.168-0.25,0.25-0.45,0.25l-1.05,0.051c-1.633,0-2.767-0.117-3.399-0.35  c-2.301-0.867-4.301-1.684-6-2.451c-1.367-0.633-2.884-0.949-4.551-0.949c-1.699-0.1-3.1-0.018-4.199,0.25  c-0.967,0.199-3.184,1.199-6.65,3c-4.233,2.133-7.417,3.199-9.55,3.199c-1.5,0-3.45-0.566-5.851-1.699  c-2.233-1.1-4.066-1.65-5.5-1.65c-0.466,0-1.583,0.334-3.35,1c-1.767,0.701-2.8,1.168-3.1,1.4c-0.167,0.133-0.367,0.184-0.601,0.15  c-0.2-0.066-0.35-0.184-0.45-0.35c-0.133-0.168-0.166-0.352-0.1-0.551c0.033-0.199,0.134-0.35,0.3-0.449  c0.533-0.334,1.667-0.852,3.4-1.551c1.934-0.768,3.233-1.15,3.899-1.15c1.733,0,3.784,0.6,6.15,1.801c2.134,1.066,3.866,1.6,5.2,1.6  c1.967,0,4.933-1.033,8.899-3.1c3.434-1.801,5.75-2.834,6.95-3.1c1.2-0.301,2.733-0.4,4.601-0.301c1.866,0,3.583,0.367,5.149,1.1  c1.3,0.633,3.267,1.434,5.9,2.4c0.433,0.166,1.383,0.25,2.85,0.25h0.9c0.2-0.033,0.366,0.018,0.5,0.15  C70.643,67.158,70.726,67.324,70.726,67.525z M77.125,64.625c1.667-0.6,2.917-0.9,3.75-0.9c1.301,0,2.817,0.4,4.551,1.201l1.35,0.6  c0.133,0.066,0.25,0.199,0.35,0.4c0.067,0.199,0.051,0.398-0.05,0.6c-0.133,0.299-0.333,0.449-0.6,0.449l-0.351-0.1l-1.3-0.6  c-1.633-0.701-2.95-1.051-3.95-1.051c-0.699,0-1.8,0.283-3.3,0.85c-0.467,0.135-0.783-0.033-0.95-0.5  C76.492,65.107,76.658,64.791,77.125,64.625z M83.525,73.025c0.434,0.232,0.533,0.582,0.3,1.049  c-0.233,0.434-0.583,0.533-1.05,0.301c-0.667-0.367-1.316-0.684-1.95-0.949c-1.033-0.4-1.733-0.602-2.1-0.602  c-3.634,0-6.95,0.885-9.95,2.65c-3.267,1.867-5.6,2.801-7,2.801c-1.566,0-3.5-0.834-5.8-2.5c-2.033-1.566-4.167-2.35-6.4-2.35  c-1,0-2.333,0.432-4,1.299c-0.833,0.4-1.517,0.783-2.05,1.15c-0.4,0.301-0.75,0.232-1.05-0.199c-0.3-0.4-0.233-0.75,0.2-1.051  c0.5-0.367,1.25-0.783,2.25-1.25c1.866-0.967,3.416-1.449,4.649-1.449c2.533,0,4.95,0.865,7.25,2.6  c2.067,1.533,3.717,2.299,4.95,2.299c1.1,0,3.184-0.883,6.25-2.648c3.233-1.9,6.8-2.852,10.7-2.852c0.6,0,1.483,0.25,2.649,0.75  L83.525,73.025z M76.325,78.275c0.467-0.434,1.033-0.65,1.7-0.65c0.6,0,1.133,0.217,1.6,0.65c0.434,0.467,0.65,1.033,0.65,1.699  c0,0.633-0.217,1.184-0.65,1.65c-0.467,0.434-1,0.65-1.6,0.65c-0.667,0-1.233-0.217-1.7-0.65c-0.433-0.467-0.649-1.018-0.649-1.65  C75.676,79.309,75.893,78.742,76.325,78.275z M77.025,80.875c0.267,0.268,0.6,0.4,1,0.4c0.367,0,0.667-0.133,0.9-0.4  c0.232-0.232,0.35-0.533,0.35-0.9c0-0.4-0.117-0.717-0.35-0.949c-0.233-0.268-0.533-0.4-0.9-0.4c-0.4,0-0.733,0.133-1,0.4  c-0.233,0.232-0.35,0.549-0.35,0.949C76.676,80.342,76.792,80.643,77.025,80.875z M16.775,18.275c0-0.633,0.217-1.168,0.65-1.6  c0.5-0.5,1.066-0.75,1.699-0.75c0.601,0,1.15,0.25,1.65,0.75c0.4,0.432,0.6,0.967,0.6,1.6c0,0.666-0.199,1.217-0.6,1.65  c-0.5,0.5-1.05,0.75-1.65,0.75c-0.633,0-1.199-0.25-1.699-0.75C16.992,19.492,16.775,18.941,16.775,18.275z M18.125,19.275  c0.334,0.266,0.667,0.4,1,0.4c0.301,0,0.617-0.135,0.95-0.4c0.233-0.268,0.351-0.6,0.351-1c0-0.367-0.117-0.668-0.351-0.9  c-0.3-0.301-0.616-0.449-0.95-0.449c-0.366,0-0.699,0.148-1,0.449c-0.233,0.232-0.35,0.533-0.35,0.9  C17.775,18.676,17.892,19.008,18.125,19.275z M25.125,30.475c-1.033-1.5-1.55-2.75-1.55-3.75c0-1.699,0.8-3.266,2.4-4.699  c1.7-1.5,3.517-2.25,5.45-2.25c4.699,0,8.866,2.949,12.5,8.85c1.399,2.434,3.116,6.35,5.149,11.75  c-2.533,0.1-5.333,0.316-8.399,0.65l-2.051-4.701c-1.366-2.533-2.883-4.5-4.55-5.898c-0.566-0.5-1.267-0.967-2.1-1.4  c-0.434-0.234-0.767-0.117-1,0.35c-0.233,0.434-0.117,0.75,0.35,0.949l1,0.602l-1.55,1c-0.934,0.666-1.75,1-2.45,1  C27.259,32.926,26.192,32.107,25.125,30.475z M13.775,44.975c0-0.1-0.05-0.25-0.15-0.449c-0.133-0.1-0.283-0.15-0.449-0.15  c-0.134,0-0.25,0.051-0.351,0.15c-0.1,0.066-0.149,0.217-0.149,0.449c0,0.168,0.05,0.301,0.149,0.4h0.05  c0.067,0.1,0.167,0.15,0.301,0.15c0.166,0,0.316-0.051,0.449-0.15L13.775,44.975z M12.125,46.025c-0.3-0.301-0.449-0.65-0.449-1.051  c0-0.467,0.149-0.832,0.449-1.1c0.301-0.334,0.65-0.5,1.051-0.5c0.433,0,0.816,0.166,1.149,0.5c0.3,0.268,0.45,0.633,0.45,1.1  c0,0.367-0.134,0.717-0.4,1.051l-0.05,0.049c-0.366,0.268-0.75,0.4-1.149,0.4c-0.334,0-0.667-0.133-1-0.4L12.125,46.025z   M24.625,73.025c0.134,0,0.267,0.049,0.4,0.15l0.1,0.35v1.299h1.4c0.167,0,0.267,0.033,0.3,0.102c0.134,0.133,0.2,0.266,0.2,0.398  c0,0.135-0.066,0.25-0.2,0.352c-0.033,0.1-0.133,0.148-0.3,0.148h-1.4v1.352l-0.1,0.35c-0.167,0.066-0.3,0.1-0.4,0.1l-0.3-0.1  c-0.133-0.133-0.2-0.25-0.2-0.35v-1.352h-1.3c-0.133,0-0.233-0.049-0.3-0.148c-0.134-0.102-0.2-0.217-0.2-0.352  c0-0.133,0.066-0.266,0.2-0.398c0.033-0.068,0.134-0.102,0.3-0.102h1.3v-1.299c0-0.1,0.067-0.217,0.2-0.35  C24.392,73.074,24.492,73.025,24.625,73.025z M46.125,83.275c-0.133,0-0.267,0.082-0.399,0.25l-0.101,0.35l0.101,0.4l0.05,0.1  l0.35,0.1l0.45-0.1l0.05-0.1l0.051-0.4c0-0.166-0.033-0.283-0.101-0.35C46.408,83.357,46.259,83.275,46.125,83.275z M46.125,82.275  c0.4,0,0.768,0.166,1.101,0.5c0.3,0.299,0.45,0.666,0.45,1.1s-0.117,0.816-0.351,1.15h-0.1c-0.3,0.299-0.667,0.449-1.101,0.449  c-0.366,0-0.699-0.15-1-0.449h-0.1c-0.267-0.301-0.4-0.684-0.4-1.15c0-0.434,0.134-0.801,0.4-1.1  C45.426,82.441,45.792,82.275,46.125,82.275z"></path></svg>